<?xml version="1.0" encoding="UTF-8" standalone="no"?>
<svg
   xmlns:dc="http://purl.org/dc/elements/1.1/"
   xmlns:cc="http://creativecommons.org/ns#"
   xmlns:rdf="http://www.w3.org/1999/02/22-rdf-syntax-ns#"
   xmlns:svg="http://www.w3.org/2000/svg"
   xmlns="http://www.w3.org/2000/svg"
   xmlns:xlink="http://www.w3.org/1999/xlink"
   xmlns:sodipodi="http://sodipodi.sourceforge.net/DTD/sodipodi-0.dtd"
   xmlns:inkscape="http://www.inkscape.org/namespaces/inkscape"
   width="90.804176mm"
   height="52.543701mm"
   viewBox="0 0 90.804176 52.543701"
   version="1.1"
   id="svg8"
   sodipodi:docname="interfer-two-wave.svg"
   inkscape:version="1.0.1 (3bc2e813f5, 2020-09-07)">
  <defs
     id="defs2">
    <defs
       id="defs893">
      <g
         id="g891">
        <symbol
           overflow="visible"
           id="tm808232-0">
          <path
             style="stroke:none"
             d="m 3.546875,-5.75 c 0.078125,-0.34375 0.09375,-0.375 0.5,-0.375 h 1.09375 c 1.140625,0 1.265625,0.359375 1.265625,1.015625 0,0.015625 0,0.28125 -0.03125,0.53125 -0.015625,0.125 -0.015625,0.140625 -0.015625,0.171875 0,0.046875 0.03125,0.109375 0.109375,0.109375 0.109375,0 0.125,-0.046875 0.140625,-0.234375 l 0.1875,-1.625 c 0.03125,-0.265625 -0.015625,-0.265625 -0.25,-0.265625 H 2.1875 c -0.203125,0 -0.296875,0 -0.296875,0.1875 0,0.109375 0.09375,0.109375 0.25,0.109375 0.375,0 0.640625,0 0.640625,0.171875 0,0.078125 0,0.09375 -0.046875,0.21875 l -1.25,5 C 1.390625,-0.375 1.375,-0.296875 0.625,-0.296875 c -0.15625,0 -0.25,0 -0.25,0.1875 C 0.375,0 0.484375,0 0.5,0 0.78125,0 1.46875,-0.03125 1.75,-0.03125 2.0625,-0.03125 2.84375,0 3.15625,0 3.234375,0 3.34375,0 3.34375,-0.171875 3.34375,-0.25 3.296875,-0.28125 3.296875,-0.28125 3.265625,-0.296875 3.25,-0.296875 3.03125,-0.296875 c -0.203125,0 -0.25,0 -0.5,-0.015625 C 2.265625,-0.34375 2.234375,-0.375 2.234375,-0.5 c 0,-0.015625 0,-0.078125 0.046875,-0.21875 z m 0,0"
             id="path870" />
        </symbol>
        <symbol
           overflow="visible"
           id="tm808232-1">
          <path
             style="stroke:none"
             d="M 0.828125,-0.5625 C 0.796875,-0.421875 0.75,-0.203125 0.75,-0.15625 c 0,0.171875 0.125,0.265625 0.265625,0.265625 0.109375,0 0.28125,-0.078125 0.359375,-0.265625 0.015625,-0.046875 0.328125,-1.328125 0.375,-1.5 C 1.828125,-1.96875 1.984375,-2.625 2.046875,-2.875 2.078125,-3 2.34375,-3.4375 2.578125,-3.65625 c 0.078125,-0.0625 0.34375,-0.3125 0.75,-0.3125 0.25,0 0.390625,0.125 0.40625,0.125 -0.296875,0.046875 -0.5,0.265625 -0.5,0.515625 C 3.234375,-3.1875 3.34375,-3 3.59375,-3 c 0.25,0 0.515625,-0.21875 0.515625,-0.5625 0,-0.328125 -0.296875,-0.609375 -0.78125,-0.609375 -0.609375,0 -1.03125,0.46875 -1.203125,0.734375 -0.078125,-0.4375 -0.421875,-0.734375 -0.859375,-0.734375 -0.4375,0 -0.609375,0.375 -0.703125,0.53125 C 0.390625,-3.3125 0.28125,-2.75 0.28125,-2.71875 c 0,0.09375 0.09375,0.09375 0.109375,0.09375 0.09375,0 0.09375,-0.015625 0.15625,-0.21875 0.15625,-0.671875 0.34375,-1.125 0.6875,-1.125 0.15625,0 0.296875,0.078125 0.296875,0.4375 0,0.203125 -0.03125,0.296875 -0.15625,0.796875 z m 0,0"
             id="path873" />
        </symbol>
        <symbol
           overflow="visible"
           id="tm808232-2">
          <path
             style="stroke:none"
             d="M 5.0625,-5.609375 C 4.9375,-5.5 4.625,-5.234375 4.625,-5.0625 c 0,0.09375 0.09375,0.1875 0.1875,0.1875 C 4.890625,-4.875 4.9375,-4.9375 5,-5 5.109375,-5.140625 5.328125,-5.390625 5.734375,-5.609375 5.796875,-5.640625 5.90625,-5.6875 5.90625,-5.796875 5.90625,-5.90625 5.828125,-5.953125 5.765625,-6 5.5625,-6.140625 5.453125,-6.296875 5.375,-6.53125 5.359375,-6.609375 5.328125,-6.734375 5.1875,-6.734375 5.0625,-6.734375 5,-6.609375 5,-6.546875 5,-6.5 5.078125,-6.1875 5.234375,-6 h -3.1875 c -0.15625,0 -0.328125,0 -0.328125,0.203125 0,0.1875 0.171875,0.1875 0.328125,0.1875 z m 0,0"
             id="path876" />
        </symbol>
        <symbol
           overflow="visible"
           id="tm808232-3">
          <path
             style="stroke:none"
             d="M 1.921875,-0.015625 C 1.921875,-0.625 1.6875,-1 1.3125,-1 1,-1 0.8125,-0.765625 0.8125,-0.5 0.8125,-0.25 1,0 1.3125,0 1.421875,0 1.546875,-0.03125 1.640625,-0.125 1.671875,-0.140625 1.6875,-0.15625 1.6875,-0.15625 c 0.015625,0 0.015625,0.015625 0.015625,0.140625 C 1.703125,0.6875 1.375,1.25 1.0625,1.5625 0.96875,1.671875 0.96875,1.6875 0.96875,1.71875 c 0,0.0625 0.046875,0.109375 0.09375,0.109375 0.09375,0 0.859375,-0.734375 0.859375,-1.84375 z m 0,0"
             id="path879" />
        </symbol>
        <symbol
           overflow="visible"
           id="tm808232-4">
          <path
             style="stroke:none"
             d="M 4.109375,-4.484375 H 0.375 V -4.25 h 0.15625 c 0.5,0 0.515625,0.0625 0.515625,0.296875 v 3.421875 c 0,0.21875 -0.015625,0.296875 -0.515625,0.296875 H 0.375 V 0 c 0,0 0.75,-0.03125 1,-0.03125 C 1.640625,-0.03125 2.4375,0 2.53125,0 V -0.234375 H 2.296875 c -0.625,0 -0.625,-0.09375 -0.625,-0.3125 v -3.4375 C 1.671875,-4.203125 1.6875,-4.25 2,-4.25 h 0.796875 c 1,0 1.171875,0.375 1.28125,1.28125 h 0.21875 z m 0,0"
             id="path882" />
        </symbol>
        <symbol
           overflow="visible"
           id="tm808232-5">
          <path
             style="stroke:none"
             d="m 2.21875,-4.203125 c 0,-0.171875 -0.015625,-0.1875 -0.203125,-0.1875 C 1.59375,-3.96875 0.984375,-3.96875 0.71875,-3.96875 v 0.234375 c 0.15625,0 0.59375,0 0.953125,-0.171875 v 3.359375 c 0,0.21875 0,0.3125 -0.65625,0.3125 h -0.25 V 0 c 0.125,0 0.9375,-0.03125 1.171875,-0.03125 C 2.140625,-0.03125 2.984375,0 3.125,0 v -0.234375 h -0.25 c -0.65625,0 -0.65625,-0.09375 -0.65625,-0.3125 z m 0,0"
             id="path885" />
        </symbol>
        <symbol
           overflow="visible"
           id="tm808232-6">
          <path
             style="stroke:none"
             d="M 3.34375,-1.203125 H 3.109375 C 3.09375,-1.0625 3.03125,-0.671875 2.9375,-0.59375 2.890625,-0.5625 2.375,-0.5625 2.28125,-0.5625 H 1.078125 C 1.765625,-1.171875 2,-1.359375 2.390625,-1.671875 2.875,-2.0625 3.34375,-2.46875 3.34375,-3.09375 c 0,-0.8125 -0.703125,-1.296875 -1.546875,-1.296875 -0.828125,0 -1.375,0.578125 -1.375,1.1875 0,0.328125 0.28125,0.375 0.34375,0.375 0.15625,0 0.34375,-0.125 0.34375,-0.359375 0,-0.125 -0.03125,-0.34375 -0.375,-0.34375 C 0.9375,-4 1.375,-4.15625 1.6875,-4.15625 c 0.671875,0 1.015625,0.515625 1.015625,1.0625 0,0.5625 -0.421875,1.03125 -0.625,1.265625 L 0.484375,-0.25 c -0.0625,0.046875 -0.0625,0.0625 -0.0625,0.25 h 2.71875 z m 0,0"
             id="path888" />
        </symbol>
      </g>
    </defs>
  </defs>
  <sodipodi:namedview
     id="base"
     pagecolor="#ffffff"
     bordercolor="#666666"
     borderopacity="1.0"
     inkscape:pageopacity="0.0"
     inkscape:pageshadow="2"
     inkscape:zoom="0.98994949"
     inkscape:cx="188.41551"
     inkscape:cy="163.8859"
     inkscape:document-units="mm"
     inkscape:current-layer="layer1"
     inkscape:document-rotation="0"
     showgrid="false"
     inkscape:snap-global="true"
     inkscape:snap-intersection-paths="true"
     inkscape:snap-center="false"
     inkscape:snap-object-midpoints="true"
     inkscape:snap-bbox="true"
     inkscape:snap-bbox-midpoints="true"
     fit-margin-top="0"
     fit-margin-left="0"
     fit-margin-right="0"
     fit-margin-bottom="0" />
  <metadata
     id="metadata5">
    <rdf:RDF>
      <cc:Work
         rdf:about="">
        <dc:format>image/svg+xml</dc:format>
        <dc:type
           rdf:resource="http://purl.org/dc/dcmitype/StillImage" />
        <dc:title></dc:title>
      </cc:Work>
    </rdf:RDF>
  </metadata>
  <g
     inkscape:label="Layer 1"
     inkscape:groupmode="layer"
     id="layer1"
     transform="translate(-18.358505,-84.423148)">
    <circle
       style="fill:none;stroke:#0000cd;stroke-width:0.565;stroke-linecap:square;stroke-miterlimit:4;stroke-dasharray:none"
       id="path835"
       cx="44.181427"
       cy="110.24607"
       r="25.540422" />
    <circle
       style="fill:none;stroke:#0000cd;stroke-width:0.665001;stroke-linecap:square;stroke-miterlimit:4;stroke-dasharray:none"
       id="path839"
       cx="44.181427"
       cy="110.24607"
       r="18.059807" />
    <circle
       style="fill:none;stroke:#0000cd;stroke-width:0.865;stroke-linecap:square;stroke-miterlimit:4;stroke-dasharray:none"
       id="path843"
       cx="44.181427"
       cy="110.24607"
       r="10.162506" />
    <circle
       style="fill:none;stroke:#0000cd;stroke-width:0.565;stroke-linecap:square;stroke-miterlimit:4;stroke-dasharray:none"
       id="circle847"
       cx="83.33976"
       cy="110.24607"
       r="25.540422" />
    <circle
       style="fill:none;stroke:#0000cd;stroke-width:0.665001;stroke-linecap:square;stroke-miterlimit:4;stroke-dasharray:none"
       id="circle849"
       cx="83.33976"
       cy="110.24607"
       r="18.059807" />
    <circle
       style="fill:none;stroke:#0000cd;stroke-width:0.865;stroke-linecap:square;stroke-miterlimit:4;stroke-dasharray:none"
       id="circle851"
       cx="83.33976"
       cy="110.24607"
       r="10.162506" />
    <g
       id="g1013"
       transform="matrix(0.64,0,0,0.64,-40.149035,69.503936)">
      <g
         style="fill:#000000;fill-opacity:1"
         id="g868"
         transform="translate(-58.683757,58.825498)">
        <use
           xlink:href="#tm808232-1"
           x="186.73347"
           y="7.4819632"
           id="use866"
           width="100%"
           height="100%" />
      </g>
      <g
         style="fill:#000000;fill-opacity:1"
         id="g897"
         transform="translate(-58.683757,58.825498)">
        <use
           xlink:href="#tm808232-2"
           x="185.29485"
           y="7.4819632"
           id="use895"
           width="100%"
           height="100%" />
      </g>
      <g
         style="fill:#000000;fill-opacity:1"
         id="g901"
         transform="translate(-58.683757,58.825498)">
        <use
           xlink:href="#tm808232-5"
           x="190.76161"
           y="8.9205875"
           id="use899"
           width="100%"
           height="100%" />
      </g>
    </g>
    <g
       id="g1021"
       transform="matrix(0.64,0,0,0.64,-8.8871816,69.503936)">
      <g
         style="fill:#000000;fill-opacity:1"
         id="g909"
         transform="translate(-58.683757,58.825498)">
        <use
           xlink:href="#tm808232-1"
           x="198.81792"
           y="7.4819632"
           id="use907"
           width="100%"
           height="100%" />
      </g>
      <g
         style="fill:#000000;fill-opacity:1"
         id="g913"
         transform="translate(-58.683757,58.825498)">
        <use
           xlink:href="#tm808232-2"
           x="197.66702"
           y="7.4819632"
           id="use911"
           width="100%"
           height="100%" />
      </g>
      <g
         style="fill:#000000;fill-opacity:1"
         id="g917"
         transform="translate(-58.683757,58.825498)">
        <use
           xlink:href="#tm808232-6"
           x="203.13379"
           y="8.9205875"
           id="use915"
           width="100%"
           height="100%" />
      </g>
    </g>
    <g
       id="g1027"
       transform="matrix(0.64,0,0,0.64,-36.663384,94.460073)">
      <g
         style="fill:#000000;fill-opacity:1"
         id="g925"
         transform="translate(-58.683757,58.825498)">
        <use
           xlink:href="#tm808232-1"
           x="210.90236"
           y="7.4819632"
           id="use923"
           width="100%"
           height="100%" />
      </g>
      <g
         style="fill:#000000;fill-opacity:1"
         id="g929"
         transform="translate(-58.683757,58.825498)">
        <use
           xlink:href="#tm808232-2"
           x="209.75146"
           y="7.4819632"
           id="use927"
           width="100%"
           height="100%" />
      </g>
    </g>
    <circle
       style="fill:#000000;fill-opacity:1;stroke:none;stroke-width:1.065;stroke-linecap:square;stroke-miterlimit:4;stroke-dasharray:none"
       id="path1031"
       cx="65.849152"
       cy="132.81987"
       r="0.49941581" />
  </g>
</svg>
